<svg width="100%" style="" viewBox="0 0 160 160" fill="none" xmlns="http://www.w3.org/2000/svg">
  <path
    d="M84.9994 15C90.5222 15 94.9994 19.4772 94.9994 25V32.2891C102.075 34.5114 108.472 38.2664 113.804 43.1621L120.131 39.5098C124.914 36.7484 131.03 38.387 133.791 43.1699L138.791 51.8301C141.553 56.613 139.914 62.7288 135.131 65.4902L128.815 69.1357C129.59 72.6336 129.999 76.2689 129.999 80C129.999 83.7307 129.59 87.3657 128.815 90.8633L135.131 94.5098C139.914 97.2712 141.553 103.387 138.791 108.17L133.791 116.83C131.03 121.613 124.914 123.252 120.131 120.49L113.804 116.837C108.472 121.733 102.076 125.488 94.9994 127.71V135C94.9994 140.523 90.5222 145 84.9994 145H74.9994C69.4768 145 64.9994 140.523 64.9994 135V127.71C57.9234 125.487 51.5268 121.733 46.1947 116.837L39.8685 120.49C35.0856 123.252 28.9698 121.613 26.2084 116.83L21.2084 108.17C18.447 103.387 20.0857 97.2712 24.8685 94.5098L31.184 90.8633C30.4091 87.3658 29.9994 83.7307 29.9994 80C29.9994 76.269 30.409 72.6335 31.184 69.1357L24.8685 65.4902C20.0858 62.7288 18.447 56.6129 21.2084 51.8301L26.2084 43.1699C28.9698 38.3871 35.0856 36.7484 39.8685 39.5098L46.1947 43.1621C51.5268 38.2664 57.9235 34.5116 64.9994 32.2891V25C64.9994 19.4774 69.4768 15.0003 74.9994 15H84.9994ZM80.0004 50C63.4318 50 50.0004 63.4315 50.0004 80C50.0004 96.5685 63.4318 110 80.0004 110C96.5687 110 110 96.5684 110 80C110 63.4316 96.5687 50.0002 80.0004 50Z"
    fill="currentColor" />
</svg>