<svg width="100%" style="" viewBox="0 0 160 160" fill="none" xmlns="http://www.w3.org/2000/svg">
  <path
    d="M106.066 35.3553C125.592 54.8816 125.592 86.5398 106.066 106.066C86.5398 125.592 54.8816 125.592 35.3554 106.066C15.8291 86.5398 15.8291 54.8816 35.3554 35.3553C54.8816 15.8291 86.5398 15.8291 106.066 35.3553ZM91.9239 49.4975C80.2082 37.7817 61.2132 37.7817 49.4975 49.4975C37.7818 61.2132 37.7818 80.2082 49.4975 91.9239C61.2132 103.64 80.2082 103.64 91.9239 91.9239C103.64 80.2082 103.64 61.2132 91.9239 49.4975Z"
    fill="currentColor" />
  <rect x="98.9949" y="84.8528" width="60" height="20" rx="10"
    transform="rotate(45 98.9949 84.8528)" fill="currentColor" />
</svg>